# Wavefront Obj file
# 
# verts: 8 uv-s: 24
mtllib DojoGround.mtl

g pCube1
#pivot 0.000000 0.000000 0.000000

v -0.915525 -0.915525 0.915525
v 0.915525 -0.915525 0.915525
v -0.915525 0.915525 0.915525
v 0.915525 0.915525 0.915525
v -0.915525 0.915525 -0.915525
v 0.915525 0.915525 -0.915525
v -0.915525 -0.915525 -0.915525
v 0.915525 -0.915525 -0.915525
# 8 positions

vt 0.249450 0.750550
vt 0.249450 0.995000
vt 0.005000 0.995000
vt 0.005000 0.750550
vt 0.497966 0.746483
vt 0.497966 0.502034
vt 0.253517 0.502034
vt 0.253517 0.746483
vt 0.502034 0.497966
vt 0.502034 0.253517
vt 0.746483 0.253517
vt 0.746483 0.497966
vt 0.748017 0.750550
vt 0.748017 0.995000
vt 0.503568 0.995000
vt 0.503568 0.750550
vt 0.005000 0.251983
vt 0.005000 0.496432
vt 0.249450 0.496432
vt 0.249450 0.251983
vt 0.995000 0.005000
vt 0.995000 0.249449
vt 0.750551 0.249449
vt 0.750551 0.005000
# 24 texture coordinates

vn -0.577350 -0.577350 0.577350
vn 0.577350 -0.577350 0.577350
vn -0.577350 0.577350 0.577350
vn 0.577350 0.577350 0.577350
vn -0.577350 0.577350 -0.577350
vn 0.577350 0.577350 -0.577350
vn -0.577350 -0.577350 -0.577350
vn 0.577350 -0.577350 -0.577350
# 8 normals

usemtl initialShadingGroup
f 1/1/1 2/2/2 4/3/4 3/4/3
f 3/5/3 4/6/4 6/7/6 5/8/5
f 5/9/5 6/10/6 8/11/8 7/12/7
f 7/13/7 8/14/8 2/15/2 1/16/1
f 2/17/2 8/18/8 6/19/6 4/20/4
f 7/21/7 1/22/1 3/23/3 5/24/5

# 6 faces
