# This file uses centimeters as units for non-parametric coordinates.

mtllib roofbody.mtl
g default
v -9.273003 3.837770 6.775173
v -3.066144 0.857932 6.775173
v -9.022230 4.360118 6.775173
v -2.815371 1.380280 6.775173
v -9.022230 4.360118 -10.879047
v -2.815371 1.380280 -10.879047
v -9.273003 3.837770 -10.879047
v -3.066144 0.857932 -10.879047
v -10.279476 2.847758 6.764787
v -9.294346 2.847758 6.764787
v -10.279476 4.406296 6.764787
v -9.022088 4.370893 6.764787
v -10.279476 4.406296 -10.830090
v -9.022088 4.370893 -10.830090
v -10.279476 2.847758 -10.830090
v -9.294346 2.847758 -10.830090
v -9.276708 3.830566 -10.830090
v -10.279476 3.830566 -10.830090
v -10.279476 3.830566 6.764787
v -9.276708 3.830566 6.764787
v -16.618086 3.830566 -10.830090
v -16.618086 3.830566 6.764787
v -16.618086 4.406296 6.764787
v -16.618086 4.406296 -10.830090
vt 0.375000 0.000000
vt 0.625000 0.000000
vt 0.625000 0.250000
vt 0.375000 0.250000
vt 0.625000 0.500000
vt 0.375000 0.500000
vt 0.625000 0.750000
vt 0.375000 0.750000
vt 0.625000 1.000000
vt 0.375000 1.000000
vt 0.875000 0.000000
vt 0.875000 0.250000
vt 0.125000 0.000000
vt 0.125000 0.250000
vt 0.375000 0.222312
vt 0.625000 0.222312
vt 0.625000 0.250000
vt 0.375000 0.250000
vt 0.625000 0.500000
vt 0.375000 0.500000
vt 0.625000 0.527688
vt 0.375000 0.527688
vt 0.375000 0.750000
vt 0.625000 0.750000
vt 0.625000 1.000000
vt 0.375000 1.000000
vt 0.875000 0.222312
vt 0.875000 0.250000
vt 0.125000 0.222312
vt 0.375000 0.222312
vt 0.375000 0.250000
vt 0.125000 0.250000
vt 0.125000 0.000000
vt 0.375000 0.000000
vt 0.125000 0.222312
vt 0.625000 0.000000
vt 0.875000 0.000000
vt 0.125000 0.250000
vn 0.000000 0.000000 1.000000
vn 0.000000 0.000000 1.000000
vn 0.000000 0.000000 1.000000
vn 0.000000 0.000000 1.000000
vn 0.432795 0.901492 0.000000
vn 0.432795 0.901492 0.000000
vn 0.432795 0.901492 0.000000
vn 0.432795 0.901492 0.000000
vn -0.000000 0.000000 -1.000000
vn -0.000000 0.000000 -1.000000
vn -0.000000 0.000000 -1.000000
vn -0.000000 0.000000 -1.000000
vn -0.432795 -0.901492 0.000000
vn -0.432795 -0.901492 0.000000
vn -0.432795 -0.901492 0.000000
vn -0.432795 -0.901492 0.000000
vn 0.901492 -0.432796 0.000000
vn 0.901492 -0.432796 0.000000
vn 0.901492 -0.432796 0.000000
vn 0.901492 -0.432796 0.000000
vn -0.901492 0.432796 0.000000
vn -0.901492 0.432796 0.000000
vn -0.901492 0.432796 0.000000
vn -0.901492 0.432796 0.000000
vn 0.000000 0.000000 1.000000
vn 0.000000 0.000000 1.000000
vn 0.000000 0.000000 1.000000
vn 0.000000 0.000000 1.000000
vn 0.004661 0.999989 0.000000
vn 0.028145 0.999604 0.000000
vn 0.028145 0.999604 0.000000
vn 0.004661 0.999989 0.000000
vn -0.000000 0.000000 -1.000000
vn -0.000001 0.000000 -1.000000
vn -0.000000 0.000000 -1.000000
vn -0.000000 0.000000 -1.000000
vn 0.000000 -1.000000 0.000000
vn 0.000000 -1.000000 0.000000
vn 0.000000 -1.000000 0.000000
vn 0.000000 -1.000000 0.000000
vn 0.984397 -0.175960 0.000000
vn 0.984397 -0.175960 0.000000
vn 0.904593 -0.426276 0.000000
vn 0.904593 -0.426276 0.000000
vn -1.000000 0.000000 0.000000
vn -1.000000 0.000000 0.000000
vn -1.000000 0.000000 0.000000
vn -1.000000 0.000000 0.000000
vn 0.000000 0.000000 -1.000000
vn 0.000000 0.000000 -1.000000
vn -1.000000 0.000000 0.000000
vn -1.000000 0.000000 0.000000
vn -1.000000 0.000000 0.000000
vn -1.000000 0.000000 0.000000
vn 0.000000 0.000000 1.000000
vn 0.000000 0.000000 1.000000
vn 0.999839 -0.017944 0.000000
vn 0.999839 -0.017944 0.000000
vn 0.000000 -1.000000 0.000000
vn 0.000000 -1.000000 0.000000
vn 0.000000 -1.000000 0.000000
vn 0.000000 -1.000000 0.000000
vn 0.000000 0.000000 1.000000
vn 0.000000 0.000000 1.000000
vn 0.000000 1.000000 0.000000
vn 0.000000 1.000000 0.000000
vn 0.000000 0.000000 -1.000000
vn 0.000000 0.000000 -1.000000
s off
g polySurface248
usemtl initialShadingGroup
f 1/1/1 2/2/2 4/3/3 3/4/4
f 3/4/5 4/3/6 6/5/7 5/6/8
f 5/6/9 6/5/10 8/7/11 7/8/12
f 7/8/13 8/7/14 2/9/15 1/10/16
f 2/2/17 8/11/18 6/12/19 4/3/20
f 7/13/21 1/1/22 3/4/23 5/14/24
s 1
usemtl blinn1SG
f 19/15/25 20/16/26 12/17/27 11/18/28
s 2
f 11/18/29 12/17/30 14/19/31 13/20/32
s 3
f 13/20/33 14/19/34 17/21/35 18/22/36
s off
f 15/23/37 16/24/38 10/25/39 9/26/40
s 4
f 20/16/41 17/27/42 14/28/43 12/17/44
s off
f 21/29/45 22/30/46 23/31/47 24/32/48
s 3
f 18/22/36 17/21/35 16/24/49 15/23/50
s off
f 15/33/51 9/34/52 19/15/53 18/35/54
s 1
f 9/34/55 10/36/56 20/16/26 19/15/25
s 4
f 10/36/57 16/37/58 17/27/42 20/16/41
s off
f 18/35/59 19/15/60 22/30/61 21/29/62
s 1
f 19/15/25 11/18/28 23/31/63 22/30/64
s 2
f 11/18/29 13/38/32 24/32/65 23/31/66
s 3
f 13/38/33 18/35/36 21/29/67 24/32/68
