# Wavefront Obj file
# 
# verts: 48 uv-s: 128
mtllib DojoPipe.mtl

g pCube1
#pivot 0.000000 0.000000 0.000000

v -0.448197 1.886227 0.448197
v 0.448197 1.886227 0.448197
v -0.448197 7.292688 0.448197
v 0.448197 7.292688 0.448197
v -0.448197 7.292688 -0.448197
v 0.448197 7.292688 -0.448197
v -0.448197 1.886227 -0.448197
v 0.448197 1.886227 -0.448197
v -0.783617 7.670194 0.783617
v 0.783617 7.670194 0.783617
v 0.783617 7.670194 -0.783617
v -0.783617 7.670194 -0.783617
v -0.783617 7.789608 0.783617
v 0.783617 7.789608 0.783617
v 0.783617 7.789608 -0.783617
v -0.783617 7.789608 -0.783617
v -1.042409 8.039845 1.042409
v 1.042409 8.039845 1.042409
v 1.042409 8.039845 -1.042409
v -1.042409 8.039845 -1.042409
v -1.042409 8.196651 1.042409
v 1.042409 8.196651 1.042409
v 1.042409 8.196651 -1.042409
v -1.042409 8.196651 -1.042409
v -0.609818 8.196651 0.609818
v 0.609818 8.196651 0.609818
v 0.609818 8.196651 -0.609818
v -0.609818 8.196651 -0.609818
v -0.609818 8.853215 0.609818
v 0.609818 8.853215 0.609818
v 0.609818 8.853215 -0.609818
v -0.609818 8.853215 -0.609818
v -0.652916 1.536009 -0.652916
v 0.652916 1.536009 -0.652916
v 0.652916 1.536009 0.652916
v -0.652916 1.536009 0.652916
v -0.652916 1.337238 -0.652916
v 0.652916 1.337238 -0.652916
v 0.652916 1.337238 0.652916
v -0.652916 1.337238 0.652916
v -0.944814 1.139996 -0.944814
v 0.944814 1.139996 -0.944814
v 0.944814 1.139996 0.944814
v -0.944814 1.139996 0.944814
v -0.944814 0.804748 -0.944814
v 0.944814 0.804748 -0.944814
v 0.944814 0.804748 0.944814
v -0.944814 0.804748 0.944814
# 48 positions

vt 0.040831 0.936354
vt 0.136589 0.936354
vt 0.136589 0.358809
vt 0.040831 0.358809
vt 0.897006 0.222477
vt 0.897006 0.092189
vt 0.766719 0.092189
vt 0.766719 0.222477
vt 0.298656 0.941917
vt 0.202899 0.941917
vt 0.202899 0.364371
vt 0.298656 0.364371
vt 0.793905 0.438392
vt 0.793905 0.640252
vt 0.592045 0.640252
vt 0.592045 0.438392
vt 0.364372 0.809389
vt 0.364372 0.905146
vt 0.941917 0.905146
vt 0.941917 0.809389
vt 0.936354 0.647321
vt 0.936354 0.743078
vt 0.358809 0.743078
vt 0.358809 0.647321
vt 0.172420 0.318482
vt 0.005000 0.318482
vt 0.982244 0.940977
vt 0.982244 0.773558
vt 0.334487 0.982244
vt 0.167068 0.982244
vt 0.318482 0.778910
vt 0.318482 0.611490
vt 0.172420 0.305726
vt 0.005000 0.305726
vt 0.995000 0.940977
vt 0.995000 0.773558
vt 0.334487 0.995000
vt 0.167068 0.995000
vt 0.305726 0.778910
vt 0.305726 0.611490
vt 0.389195 0.445186
vt 0.389195 0.612606
vt 0.361549 0.640252
vt 0.361549 0.417541
vt 0.556614 0.612606
vt 0.584260 0.640252
vt 0.556614 0.445186
vt 0.584260 0.417541
vt 0.219834 0.075398
vt 0.219834 0.298109
vt 0.203083 0.298109
vt 0.203083 0.075398
vt 0.226493 0.075398
vt 0.226493 0.298109
vt 0.243244 0.298109
vt 0.243244 0.075398
vt 0.021751 0.498575
vt 0.021751 0.721286
vt 0.005000 0.721286
vt 0.005000 0.498575
vt 0.021750 0.729071
vt 0.021750 0.951782
vt 0.005000 0.951782
vt 0.005000 0.729071
vt 0.550045 0.409755
vt 0.550045 0.187045
vt 0.503834 0.233256
vt 0.503834 0.363544
vt 0.327335 0.187045
vt 0.373546 0.233256
vt 0.327335 0.409755
vt 0.373546 0.363544
vt 0.195788 0.167821
vt 0.195788 0.298109
vt 0.125650 0.298109
vt 0.125650 0.167821
vt 0.395763 0.475750
vt 0.395763 0.606037
vt 0.465901 0.606037
vt 0.465901 0.475750
vt 0.543333 0.475750
vt 0.543333 0.606037
vt 0.473196 0.606037
vt 0.473196 0.475750
vt 0.118356 0.167821
vt 0.118356 0.298109
vt 0.048218 0.298109
vt 0.048218 0.167821
vt 0.181030 0.326959
vt 0.320525 0.326959
vt 0.326959 0.787520
vt 0.326959 0.927015
vt 0.018962 0.973766
vt 0.158458 0.973766
vt 0.973766 0.625452
vt 0.973766 0.764948
vt 0.181030 0.305726
vt 0.320525 0.305726
vt 0.305726 0.787520
vt 0.305726 0.927015
vt 0.018962 0.995000
vt 0.158458 0.995000
vt 0.995000 0.625452
vt 0.995000 0.764948
vt 0.589013 0.378573
vt 0.589013 0.239078
vt 0.557831 0.207896
vt 0.557831 0.409755
vt 0.728508 0.239078
vt 0.759691 0.207896
vt 0.728508 0.378573
vt 0.759691 0.409755
vt 0.005000 0.298109
vt 0.005000 0.096249
vt 0.040813 0.096249
vt 0.040813 0.298109
vt 0.802531 0.431364
vt 0.802531 0.229505
vt 0.766719 0.229505
vt 0.766719 0.431364
vt 0.147259 0.939177
vt 0.147259 0.737317
vt 0.183072 0.737317
vt 0.183072 0.939177
vt 0.143658 0.730289
vt 0.143658 0.528430
vt 0.179471 0.528430
vt 0.179471 0.730289
# 128 texture coordinates

vn -0.647995 0.400256 0.647995
vn 0.647995 0.400256 0.647995
vn -0.596518 -0.536966 0.596518
vn 0.596518 -0.536966 0.596518
vn -0.596518 -0.536966 -0.596518
vn 0.596518 -0.536966 -0.596518
vn -0.647995 0.400256 -0.647995
vn 0.647995 0.400256 -0.647995
vn -0.656329 -0.372108 0.656329
vn 0.656329 -0.372108 0.656329
vn 0.656329 -0.372108 -0.656329
vn -0.656329 -0.372108 -0.656329
vn -0.573705 -0.584573 0.573705
vn 0.573705 -0.584573 0.573705
vn 0.573705 -0.584573 -0.573705
vn -0.573705 -0.584573 -0.573705
vn -0.649106 -0.396639 0.649106
vn 0.649106 -0.396639 0.649106
vn 0.649106 -0.396639 -0.649106
vn -0.649106 -0.396639 -0.649106
vn -0.577350 0.577350 0.577350
vn 0.577350 0.577350 0.577350
vn 0.577350 0.577350 -0.577350
vn -0.577350 0.577350 -0.577350
vn -0.301511 0.904534 0.301511
vn 0.301511 0.904534 0.301511
vn 0.301511 0.904534 -0.301511
vn -0.301511 0.904534 -0.301511
vn -0.577350 0.577350 0.577350
vn 0.577350 0.577350 0.577350
vn 0.577350 0.577350 -0.577350
vn -0.577350 0.577350 -0.577350
vn -0.675000 0.297909 -0.675000
vn 0.675000 0.297909 -0.675000
vn 0.675000 0.297909 0.675000
vn -0.675000 0.297909 0.675000
vn -0.516669 0.682720 -0.516669
vn 0.516669 0.682720 -0.516669
vn 0.516669 0.682720 0.516669
vn -0.516669 0.682720 0.516669
vn -0.632650 0.446663 -0.632650
vn 0.632650 0.446663 -0.632650
vn 0.632650 0.446663 0.632650
vn -0.632650 0.446663 0.632650
vn -0.577350 -0.577350 -0.577350
vn 0.577350 -0.577350 -0.577350
vn 0.577350 -0.577350 0.577350
vn -0.577350 -0.577350 0.577350
# 48 normals

usemtl initialShadingGroup
f 1/1/1 2/2/2 4/3/4 3/4/3
f 29/5/29 30/6/30 31/7/31 32/8/32
f 5/9/5 6/10/6 8/11/8 7/12/7
f 45/13/45 46/14/46 47/15/47 48/16/48
f 2/17/2 8/18/8 6/19/6 4/20/4
f 7/21/7 1/22/1 3/23/3 5/24/5
f 3/4/3 4/3/4 10/25/10 9/26/9
f 4/20/4 6/19/6 11/27/11 10/28/10
f 6/10/6 5/9/5 12/29/12 11/30/11
f 5/24/5 3/23/3 9/31/9 12/32/12
f 9/26/9 10/25/10 14/33/14 13/34/13
f 10/28/10 11/27/11 15/35/15 14/36/14
f 11/30/11 12/29/12 16/37/16 15/38/15
f 12/32/12 9/31/9 13/39/13 16/40/16
f 13/41/13 14/42/14 18/43/18 17/44/17
f 14/42/14 15/45/15 19/46/19 18/43/18
f 15/45/15 16/47/16 20/48/20 19/46/19
f 16/47/16 13/41/13 17/44/17 20/48/20
f 17/49/17 18/50/18 22/51/22 21/52/21
f 18/53/18 19/54/19 23/55/23 22/56/22
f 19/57/19 20/58/20 24/59/24 23/60/23
f 20/61/20 17/62/17 21/63/21 24/64/24
f 21/65/21 22/66/22 26/67/26 25/68/25
f 22/66/22 23/69/23 27/70/27 26/67/26
f 23/69/23 24/71/24 28/72/28 27/70/27
f 24/71/24 21/65/21 25/68/25 28/72/28
f 25/73/25 26/74/26 30/75/30 29/76/29
f 26/77/26 27/78/27 31/79/31 30/80/30
f 27/81/27 28/82/28 32/83/32 31/84/31
f 28/85/28 25/86/25 29/87/29 32/88/32
f 7/12/7 8/11/8 34/89/34 33/90/33
f 8/18/8 2/17/2 35/91/35 34/92/34
f 2/2/2 1/1/1 36/93/36 35/94/35
f 1/22/1 7/21/7 33/95/33 36/96/36
f 33/90/33 34/89/34 38/97/38 37/98/37
f 34/92/34 35/91/35 39/99/39 38/100/38
f 35/94/35 36/93/36 40/101/40 39/102/39
f 36/96/36 33/95/33 37/103/37 40/104/40
f 37/105/37 38/106/38 42/107/42 41/108/41
f 38/106/38 39/109/39 43/110/43 42/107/42
f 39/109/39 40/111/40 44/112/44 43/110/43
f 40/111/40 37/105/37 41/108/41 44/112/44
f 41/113/41 42/114/42 46/115/46 45/116/45
f 42/117/42 43/118/43 47/119/47 46/120/46
f 43/121/43 44/122/44 48/123/48 47/124/47
f 44/125/44 41/126/41 45/127/45 48/128/48

# 46 faces
