# Wavefront Obj file
# 
# verts: 80 uv-s: 240
mtllib WindowGrid.mtl

g polySurface46
#pivot 0.000000 0.000000 0.000000

v -1.831072 -2.316510 17.230127
v -1.609373 -2.316510 17.230127
v -1.831072 11.697157 17.230127
v -1.609373 11.697157 17.230127
v -1.831072 11.697157 14.382431
v -1.609373 11.697157 14.382431
v -1.831072 -2.316510 14.382431
v -1.609373 -2.316510 14.382431
v -1.831072 -2.316510 11.361805
v -1.609373 -2.316510 11.361805
v -1.831072 11.697157 11.361805
v -1.609373 11.697157 11.361805
v -1.831072 11.697157 8.514111
v -1.609373 11.697157 8.514111
v -1.831072 -2.316510 8.514111
v -1.609373 -2.316510 8.514111
v -1.820952 11.371943 20.209223
v -1.619493 11.371943 20.209223
v -1.820952 11.612399 20.209223
v -1.619493 11.612399 20.209223
v -1.820952 11.612399 -11.865685
v -1.619493 11.612399 -11.865685
v -1.820952 11.371943 -11.865685
v -1.619493 11.371943 -11.865685
v -1.820952 8.664276 20.209223
v -1.619493 8.664276 20.209223
v -1.820952 8.904731 20.209223
v -1.619493 8.904731 20.209223
v -1.820952 8.904731 -11.865685
v -1.619493 8.904731 -11.865685
v -1.820952 8.664276 -11.865685
v -1.619493 8.664276 -11.865685
v -1.820952 5.768259 20.209223
v -1.619493 5.768259 20.209223
v -1.820952 6.008714 20.209223
v -1.619493 6.008714 20.209223
v -1.820952 6.008714 -11.865685
v -1.619493 6.008714 -11.865685
v -1.820952 5.768259 -11.865685
v -1.619493 5.768259 -11.865685
v -1.831072 -2.316510 5.493481
v -1.609373 -2.316510 5.493481
v -1.831072 11.697157 5.493481
v -1.609373 11.697157 5.493481
v -1.831072 11.697157 2.645783
v -1.609373 11.697157 2.645783
v -1.831072 -2.316510 2.645783
v -1.609373 -2.316510 2.645783
v -1.831072 -2.316510 -0.238372
v -1.609373 -2.316510 -0.238372
v -1.831072 11.697157 -0.238372
v -1.609373 11.697157 -0.238372
v -1.831072 11.697157 -3.086070
v -1.609373 11.697157 -3.086070
v -1.831072 -2.316510 -3.086070
v -1.609373 -2.316510 -3.086070
v -1.831072 -2.316510 -6.038460
v -1.609373 -2.316510 -6.038460
v -1.831072 11.697157 -6.038460
v -1.609373 11.697157 -6.038460
v -1.831072 11.697157 -8.886159
v -1.609373 11.697157 -8.886159
v -1.831072 -2.316510 -8.886159
v -1.609373 -2.316510 -8.886159
v -1.820952 2.749007 20.209223
v -1.619493 2.749007 20.209223
v -1.820952 2.989461 20.209223
v -1.619493 2.989461 20.209223
v -1.820952 2.989461 -11.865685
v -1.619493 2.989461 -11.865685
v -1.820952 2.749007 -11.865685
v -1.619493 2.749007 -11.865685
v -1.820952 -0.085395 20.209223
v -1.619493 -0.085395 20.209223
v -1.820952 0.155060 20.209223
v -1.619493 0.155060 20.209223
v -1.820952 0.155060 -11.865685
v -1.619493 0.155060 -11.865685
v -1.820952 -0.085395 -11.865685
v -1.619493 -0.085395 -11.865685
# 80 positions

vt 0.912744 0.531226
vt 0.912744 0.537258
vt 0.531488 0.537258
vt 0.531488 0.531226
vt 0.608962 0.406474
vt 0.608962 0.400442
vt 0.531488 0.400442
vt 0.531488 0.406474
vt 0.531488 0.523844
vt 0.531488 0.517812
vt 0.912743 0.517812
vt 0.912743 0.523844
vt 0.608962 0.413856
vt 0.608962 0.419888
vt 0.531488 0.419888
vt 0.531488 0.413856
vt 0.085482 0.270315
vt 0.085482 0.347789
vt 0.466738 0.347789
vt 0.466738 0.270315
vt 0.912743 0.791772
vt 0.912743 0.869247
vt 0.531488 0.869247
vt 0.531488 0.791772
vt 0.912743 0.558053
vt 0.912743 0.564085
vt 0.531488 0.564085
vt 0.531488 0.558053
vt 0.608962 0.433301
vt 0.608962 0.427270
vt 0.531488 0.427270
vt 0.531488 0.433301
vt 0.531488 0.550671
vt 0.531488 0.544640
vt 0.912743 0.544640
vt 0.912743 0.550671
vt 0.608962 0.440684
vt 0.608962 0.446715
vt 0.531488 0.446715
vt 0.531488 0.440684
vt 0.531488 0.707937
vt 0.531488 0.785411
vt 0.912743 0.785411
vt 0.912743 0.707937
vt 0.912743 0.624101
vt 0.912743 0.701575
vt 0.531488 0.701575
vt 0.531488 0.624101
vt 0.564857 0.466385
vt 0.564857 0.471866
vt 0.558315 0.471866
vt 0.558315 0.466385
vt 0.958112 0.936315
vt 0.958112 0.930834
vt 0.085482 0.930834
vt 0.085482 0.936315
vt 0.544901 0.471866
vt 0.544901 0.466385
vt 0.551443 0.466385
vt 0.551443 0.471866
vt 0.958112 0.883886
vt 0.958112 0.889367
vt 0.085482 0.889367
vt 0.085482 0.883886
vt 0.058655 0.122370
vt 0.058655 0.995000
vt 0.065196 0.995000
vt 0.065196 0.122370
vt 0.051783 0.122370
vt 0.051783 0.995000
vt 0.045241 0.995000
vt 0.045241 0.122370
vt 0.564857 0.504949
vt 0.564857 0.510430
vt 0.558315 0.510430
vt 0.558315 0.504949
vt 0.958112 0.959789
vt 0.958112 0.954308
vt 0.085482 0.954308
vt 0.085482 0.959789
vt 0.531488 0.471866
vt 0.531488 0.466385
vt 0.538029 0.466385
vt 0.538029 0.471866
vt 0.958112 0.942571
vt 0.958112 0.948052
vt 0.085482 0.948052
vt 0.085482 0.942571
vt 0.005000 0.122370
vt 0.005000 0.995000
vt 0.011542 0.995000
vt 0.011542 0.122370
vt 0.024955 0.122370
vt 0.024955 0.995000
vt 0.018414 0.995000
vt 0.018414 0.122370
vt 0.538029 0.504949
vt 0.538029 0.510430
vt 0.531488 0.510430
vt 0.531488 0.504949
vt 0.958112 0.971526
vt 0.958112 0.966045
vt 0.085482 0.966045
vt 0.085482 0.971526
vt 0.544901 0.510430
vt 0.544901 0.504949
vt 0.551443 0.504949
vt 0.551443 0.510430
vt 0.958112 0.989519
vt 0.958112 0.995000
vt 0.085482 0.995000
vt 0.085482 0.989519
vt 0.031827 0.122370
vt 0.031827 0.995000
vt 0.038369 0.995000
vt 0.038369 0.122370
vt 0.078610 0.122370
vt 0.078610 0.995000
vt 0.072068 0.995000
vt 0.072068 0.122370
vt 0.912743 0.584881
vt 0.912743 0.590912
vt 0.531488 0.590912
vt 0.531488 0.584881
vt 0.608962 0.498693
vt 0.608962 0.492662
vt 0.531488 0.492662
vt 0.531488 0.498693
vt 0.531488 0.577499
vt 0.531488 0.571467
vt 0.912744 0.571467
vt 0.912744 0.577499
vt 0.608962 0.454097
vt 0.608962 0.460129
vt 0.531488 0.460129
vt 0.531488 0.454097
vt 0.085482 0.464813
vt 0.085482 0.542288
vt 0.466739 0.542288
vt 0.466739 0.464813
vt 0.466739 0.380978
vt 0.466739 0.458452
vt 0.085482 0.458452
vt 0.085482 0.380978
vt 0.912744 0.611708
vt 0.912744 0.617740
vt 0.531488 0.617740
vt 0.531488 0.611708
vt 0.608962 0.485280
vt 0.608962 0.479248
vt 0.531488 0.479248
vt 0.531488 0.485280
vt 0.531488 0.604326
vt 0.531488 0.598294
vt 0.912743 0.598294
vt 0.912743 0.604326
vt 0.608963 0.387029
vt 0.608963 0.393060
vt 0.531488 0.393060
vt 0.531488 0.387029
vt 0.085482 0.800156
vt 0.085482 0.877630
vt 0.466739 0.877630
vt 0.466739 0.800156
vt 0.466739 0.716320
vt 0.466739 0.793795
vt 0.085482 0.793795
vt 0.085482 0.716320
vt 0.466739 0.368585
vt 0.466739 0.374617
vt 0.085482 0.374617
vt 0.085482 0.368585
vt 0.608961 0.366233
vt 0.608961 0.360201
vt 0.531488 0.360201
vt 0.531488 0.366233
vt 0.085482 0.361203
vt 0.085482 0.355171
vt 0.466739 0.355171
vt 0.466739 0.361203
vt 0.608963 0.373615
vt 0.608963 0.379647
vt 0.531488 0.379647
vt 0.531488 0.373615
vt 0.085482 0.632484
vt 0.085482 0.709959
vt 0.466739 0.709959
vt 0.466739 0.632484
vt 0.466737 0.548649
vt 0.466737 0.626123
vt 0.085482 0.626123
vt 0.085482 0.548649
vt 0.578270 0.466385
vt 0.578270 0.471866
vt 0.571729 0.471866
vt 0.571729 0.466385
vt 0.958112 0.924578
vt 0.958112 0.919097
vt 0.085482 0.919097
vt 0.085482 0.924578
vt 0.586819 0.471866
vt 0.586819 0.466385
vt 0.593361 0.466385
vt 0.593361 0.471866
vt 0.958112 0.907360
vt 0.958112 0.912841
vt 0.085482 0.912841
vt 0.085482 0.907360
vt 0.472803 0.005000
vt 0.472803 0.877630
vt 0.479344 0.877630
vt 0.479344 0.005000
vt 0.494435 0.005000
vt 0.494435 0.877630
vt 0.487893 0.877630
vt 0.487893 0.005000
vt 0.593361 0.504949
vt 0.593361 0.510430
vt 0.586819 0.510430
vt 0.586819 0.504949
vt 0.958112 0.901104
vt 0.958112 0.895623
vt 0.085482 0.895623
vt 0.085482 0.901104
vt 0.571729 0.510430
vt 0.571729 0.504949
vt 0.578270 0.504949
vt 0.578270 0.510430
vt 0.958112 0.977782
vt 0.958112 0.983263
vt 0.085482 0.983263
vt 0.085482 0.977782
vt 0.502984 0.005000
vt 0.502984 0.877630
vt 0.509525 0.877630
vt 0.509525 0.005000
vt 0.524616 0.005000
vt 0.524616 0.877630
vt 0.518074 0.877630
vt 0.518074 0.005000
# 240 texture coordinates

vn -0.577350 -0.577350 0.577350
vn 0.577350 -0.577350 0.577350
vn -0.577350 0.577350 0.577350
vn 0.577350 0.577350 0.577350
vn -0.577350 0.577350 -0.577350
vn 0.577350 0.577350 -0.577350
vn -0.577350 -0.577350 -0.577350
vn 0.577350 -0.577350 -0.577350
vn -0.577350 -0.577350 0.577350
vn 0.577350 -0.577350 0.577350
vn -0.577350 0.577350 0.577350
vn 0.577350 0.577350 0.577350
vn -0.577350 0.577350 -0.577350
vn 0.577350 0.577350 -0.577350
vn -0.577350 -0.577350 -0.577350
vn 0.577350 -0.577350 -0.577350
vn -0.577350 -0.577350 0.577350
vn 0.577350 -0.577350 0.577350
vn -0.577350 0.577350 0.577350
vn 0.577350 0.577350 0.577350
vn -0.577350 0.577350 -0.577350
vn 0.577350 0.577350 -0.577350
vn -0.577350 -0.577350 -0.577350
vn 0.577350 -0.577350 -0.577350
vn -0.577350 -0.577350 0.577350
vn 0.577350 -0.577350 0.577350
vn -0.577350 0.577350 0.577350
vn 0.577350 0.577350 0.577350
vn -0.577350 0.577350 -0.577350
vn 0.577350 0.577350 -0.577350
vn -0.577350 -0.577350 -0.577350
vn 0.577350 -0.577350 -0.577350
vn -0.577350 -0.577350 0.577350
vn 0.577350 -0.577350 0.577350
vn -0.577350 0.577350 0.577350
vn 0.577350 0.577350 0.577350
vn -0.577350 0.577350 -0.577350
vn 0.577350 0.577350 -0.577350
vn -0.577350 -0.577350 -0.577350
vn 0.577350 -0.577350 -0.577350
vn -0.577350 -0.577350 0.577350
vn 0.577350 -0.577350 0.577350
vn -0.577350 0.577350 0.577350
vn 0.577350 0.577350 0.577350
vn -0.577350 0.577350 -0.577350
vn 0.577350 0.577350 -0.577350
vn -0.577350 -0.577350 -0.577350
vn 0.577350 -0.577350 -0.577350
vn -0.577350 -0.577350 0.577350
vn 0.577350 -0.577350 0.577350
vn -0.577350 0.577350 0.577350
vn 0.577350 0.577350 0.577350
vn -0.577350 0.577350 -0.577350
vn 0.577350 0.577350 -0.577350
vn -0.577350 -0.577350 -0.577350
vn 0.577350 -0.577350 -0.577350
vn -0.577350 -0.577350 0.577350
vn 0.577350 -0.577350 0.577350
vn -0.577350 0.577350 0.577350
vn 0.577350 0.577350 0.577350
vn -0.577350 0.577350 -0.577350
vn 0.577350 0.577350 -0.577350
vn -0.577350 -0.577350 -0.577350
vn 0.577350 -0.577350 -0.577350
vn -0.577350 -0.577350 0.577350
vn 0.577350 -0.577350 0.577350
vn -0.577350 0.577350 0.577350
vn 0.577350 0.577350 0.577350
vn -0.577350 0.577350 -0.577350
vn 0.577350 0.577350 -0.577350
vn -0.577350 -0.577350 -0.577350
vn 0.577350 -0.577350 -0.577350
vn -0.577350 -0.577350 0.577350
vn 0.577350 -0.577350 0.577350
vn -0.577350 0.577350 0.577350
vn 0.577350 0.577350 0.577350
vn -0.577350 0.577350 -0.577350
vn 0.577350 0.577350 -0.577350
vn -0.577350 -0.577350 -0.577350
vn 0.577350 -0.577350 -0.577350
# 80 normals

usemtl DojoWindow:initialShadingGroup
f 1/1/1 2/2/2 4/3/4 3/4/3
f 3/5/3 4/6/4 6/7/6 5/8/5
f 5/9/5 6/10/6 8/11/8 7/12/7
f 7/13/7 8/14/8 2/15/2 1/16/1
f 2/17/2 8/18/8 6/19/6 4/20/4
f 7/21/7 1/22/1 3/23/3 5/24/5
f 9/25/9 10/26/10 12/27/12 11/28/11
f 11/29/11 12/30/12 14/31/14 13/32/13
f 13/33/13 14/34/14 16/35/16 15/36/15
f 15/37/15 16/38/16 10/39/10 9/40/9
f 10/41/10 16/42/16 14/43/14 12/44/12
f 15/45/15 9/46/9 11/47/11 13/48/13
f 17/49/17 18/50/18 20/51/20 19/52/19
f 19/53/19 20/54/20 22/55/22 21/56/21
f 21/57/21 22/58/22 24/59/24 23/60/23
f 23/61/23 24/62/24 18/63/18 17/64/17
f 18/65/18 24/66/24 22/67/22 20/68/20
f 23/69/23 17/70/17 19/71/19 21/72/21
f 25/73/25 26/74/26 28/75/28 27/76/27
f 27/77/27 28/78/28 30/79/30 29/80/29
f 29/81/29 30/82/30 32/83/32 31/84/31
f 31/85/31 32/86/32 26/87/26 25/88/25
f 26/89/26 32/90/32 30/91/30 28/92/28
f 31/93/31 25/94/25 27/95/27 29/96/29
f 33/97/33 34/98/34 36/99/36 35/100/35
f 35/101/35 36/102/36 38/103/38 37/104/37
f 37/105/37 38/106/38 40/107/40 39/108/39
f 39/109/39 40/110/40 34/111/34 33/112/33
f 34/113/34 40/114/40 38/115/38 36/116/36
f 39/117/39 33/118/33 35/119/35 37/120/37
f 41/121/41 42/122/42 44/123/44 43/124/43
f 43/125/43 44/126/44 46/127/46 45/128/45
f 45/129/45 46/130/46 48/131/48 47/132/47
f 47/133/47 48/134/48 42/135/42 41/136/41
f 42/137/42 48/138/48 46/139/46 44/140/44
f 47/141/47 41/142/41 43/143/43 45/144/45
f 49/145/49 50/146/50 52/147/52 51/148/51
f 51/149/51 52/150/52 54/151/54 53/152/53
f 53/153/53 54/154/54 56/155/56 55/156/55
f 55/157/55 56/158/56 50/159/50 49/160/49
f 50/161/50 56/162/56 54/163/54 52/164/52
f 55/165/55 49/166/49 51/167/51 53/168/53
f 57/169/57 58/170/58 60/171/60 59/172/59
f 59/173/59 60/174/60 62/175/62 61/176/61
f 61/177/61 62/178/62 64/179/64 63/180/63
f 63/181/63 64/182/64 58/183/58 57/184/57
f 58/185/58 64/186/64 62/187/62 60/188/60
f 63/189/63 57/190/57 59/191/59 61/192/61
f 65/193/65 66/194/66 68/195/68 67/196/67
f 67/197/67 68/198/68 70/199/70 69/200/69
f 69/201/69 70/202/70 72/203/72 71/204/71
f 71/205/71 72/206/72 66/207/66 65/208/65
f 66/209/66 72/210/72 70/211/70 68/212/68
f 71/213/71 65/214/65 67/215/67 69/216/69
f 73/217/73 74/218/74 76/219/76 75/220/75
f 75/221/75 76/222/76 78/223/78 77/224/77
f 77/225/77 78/226/78 80/227/80 79/228/79
f 79/229/79 80/230/80 74/231/74 73/232/73
f 74/233/74 80/234/80 78/235/78 76/236/76
f 79/237/79 73/238/73 75/239/75 77/240/77

# 60 faces
